<?xml version="1.0" encoding="utf-8"?>
<!-- Generator: Adobe Illustrator 25.4.1, SVG Export Plug-In . SVG Version: 6.00 Build 0)  -->
<svg version="1.1" id="mdi-graph-outline" xmlns="http://www.w3.org/2000/svg" xmlns:xlink="http://www.w3.org/1999/xlink" x="0px"
	 y="0px" viewBox="0 0 16 16" style="enable-background:new 0 0 16 16;" xml:space="preserve">
<style type="text/css">
	.st0{fill:#C5C5C5;}
</style>
<path class="st0" d="M11.9,2.1c0,0.1,0,0.2,0,0.3L9.4,3.7C9.1,3.3,8.5,3.1,8,3.1c-1.1,0-2,0.9-2,2c0,0.1,0,0.2,0,0.3L3.4,6.7
	C3,6.3,2.5,6,2,6C0.9,6,0,6.9,0,8s0.9,2,2,2c0.6,0,1-0.2,1.4-0.6L6,10.7c0,0.1,0,0.2,0,0.3c0,1.1,0.9,2,2,2c0.6,0,1-0.2,1.4-0.6
	l2.6,1.3c0,0.1,0,0.2,0,0.3c0,1.1,0.9,2,2,2s2-0.9,2-2s-0.9-2-2-2c-0.6,0-1,0.2-1.4,0.6L10,11.3c0-0.1,0-0.2,0-0.3s0-0.2,0-0.3
	l2.5-1.3C13,9.8,13.5,10,14,10c1.1,0,2-0.9,2-2s-0.9-2-2-2s-2.1,0.9-2.1,2c0,0.1,0,0.2,0,0.3L9.4,9.6C9.1,9.3,8.5,9,8,9
	S7,9.2,6.6,9.6L4,8.4C4,8.3,4,8.1,4,8s0-0.2,0-0.3l2.5-1.3C6.8,6.8,7.4,7.1,8,7.1c1.1,0,2-0.9,2-2c0-0.1,0-0.2,0-0.3l2.5-1.3
	c0.4,0.3,0.9,0.6,1.4,0.6c1.1,0,2-0.9,2-2s-0.9-2-2-2S11.9,1,11.9,2.1 M14.7,14c0,0.4-0.4,0.8-0.8,0.8c-0.4,0-0.8-0.4-0.8-0.8
	s0.4-0.8,0.8-0.8S14.7,13.6,14.7,14 M13.9,7.2c0.4,0,0.8,0.3,0.8,0.8s-0.4,0.8-0.8,0.8c-0.4,0-0.8-0.3-0.8-0.8S13.5,7.2,13.9,7.2
	 M8,11.9c-0.5,0-0.8-0.3-0.8-0.8s0.3-0.8,0.8-0.8s0.8,0.3,0.8,0.8C8.8,11.5,8.4,11.9,8,11.9 M2,8.8C1.6,8.8,1.2,8.5,1.2,8
	S1.6,7.2,2,7.2S2.8,7.6,2.8,8C2.8,8.4,2.5,8.8,2,8.8 M8,5.8C7.5,5.8,7.2,5.5,7.2,5c0-0.4,0.3-0.8,0.8-0.8S8.8,4.6,8.8,5
	S8.4,5.8,8,5.8 M14.7,2.1c0,0.4-0.4,0.8-0.8,0.8c-0.4,0-0.8-0.4-0.8-0.8s0.4-0.8,0.8-0.8S14.7,1.7,14.7,2.1z"/>
</svg>
